<?xml version="1.0" encoding="utf-8"?>
<!-- Generator: Adobe Illustrator 23.0.1, SVG Export Plug-In . SVG Version: 6.00 Build 0)  -->
<svg version="1.1" id="Layer_1" xmlns="http://www.w3.org/2000/svg" xmlns:xlink="http://www.w3.org/1999/xlink" x="0px" y="0px"
	 viewBox="0 0 512 512" style="enable-background:new 0 0 512 512;" xml:space="preserve">
<style type="text/css">
	.st0{fill:#555555;}
</style>
<g transform="translate(1 1)">
	<g>
		<g>
			<path class="st0" d="M348.9,365.9c-5.1,0-8.5,3.4-8.5,8.5s3.4,8.5,8.5,8.5h8.5h85.3h8.5c5.1,0,8.5-3.4,8.5-8.5s-3.4-8.5-8.5-8.5
				v-76.8c0-5.1-3.4-8.5-8.5-8.5h-85.3c-5.1,0-8.5,3.4-8.5,8.5V365.9z M365.9,340.3h25.6v25.6h-25.6V340.3z M408.6,365.9v-25.6h25.6
				v25.6H408.6z M434.2,323.3h-25.6v-25.6h25.6V323.3z M391.5,297.7v25.6h-25.6v-25.6H391.5z"/>
			<path class="st0" d="M297.7,383H290c-5.1,0-8.5,3.4-8.5,8.5s3.4,8.5,8.5,8.5h7.7c5.1,0,8.5-3.4,8.5-8.5S302.8,383,297.7,383z"/>
			<path class="st0" d="M155.2,411.2c8.5-5.1,16.2-11.1,24.7-17.1c46.1-35.8,73.4-94.7,73.4-156.2v-76.8c0-4.3-2.6-7.7-6-8.5
				c-35-9.4-64.9-25.6-91.3-41.8c-2.6-1.7-6-1.7-8.5,0C121,127,92,143.2,56.2,152.6c-3.4,1.7-6,4.3-6,8.5v76.8
				c0,61.4,27.3,120.3,73.4,156.2c7.7,6.8,16.2,11.9,24.7,17.1c1.7,0.9,2.6,0.9,4.3,0.9C154.3,412,155.2,411.2,155.2,411.2z
				 M133.8,380.4C92,348,67.3,294.3,67.3,237.9v-70c33.3-10.2,60.6-24.7,85.3-39.3c24.7,14.5,52.1,29.9,85.3,39.3v70
				c0,56.3-24.7,110.1-66.6,142.5c-6,5.1-12.8,9.4-18.8,12.8C145.8,389.8,139.8,385.6,133.8,380.4z"/>
			<path class="st0" d="M132.1,164.5l-7.7,3.4c-8.5,4.3-17.1,8.5-25.6,11.1c-3.4,0.9-6,4.3-6,7.7v59.7c0,33.3,9.4,53.8,27.3,81.1
				c1.7,2.6,4.3,4.3,6.8,4.3c1.7,0,3.4-0.9,4.3-0.9c4.3-2.6,5.1-7.7,2.6-11.9c-16.2-25.6-23.9-43.5-23.9-72.5v-53.8
				c6.8-2.6,14.5-6,21.3-9.4l7.7-3.4c4.3-1.7,6-6.8,4.3-11.1S136.4,162.8,132.1,164.5z"/>
			<path class="st0" d="M505.9,187.6l-80.2-30.1V92.9h8.5c5.1,0,8.5-3.4,8.5-8.5V50.2c0-5.1-3.4-8.5-8.5-8.5H323.3
				c-5.1,0-8.5,3.4-8.5,8.5v34.1c0,5.1,3.4,8.5,8.5,8.5h8.5v29.4l-29.7-11.1c-0.9-0.6-1.8-1-2.7-1.2c-60.6-7.7-104.1-32.4-141.7-58
				c-2.6-1.7-6.8-1.7-9.4,0c-38.4,25.6-81.9,50.3-141.7,58c-4.3,0.9-7.7,4.3-7.7,8.5v118.6c0,77.7,35,151.9,93,197.1
				c17.4,14.1,36.3,24.9,55.4,32.6c1.1,0.8,2.5,1.3,4,1.5c0.5,0.1,0.8,0.1,1.2,0.1h76.8h93.9h153.6c5.1,0,8.5-3.4,7.7-8.5v-30.1
				c0.5-1.2,0.9-2.5,0.9-4s-0.3-2.9-0.9-4V239.6l14.5,6c0.9,0.9,2.6,0.9,3.4,0.9c1.7,0,3.4-0.9,5.1-1.7c1.7-1.7,3.4-4.3,3.4-6.8
				v-42.7C511,191.9,509.3,188.4,505.9,187.6z M331.8,58.7h93.9v17.1h-8.5h-76.8h-8.5V58.7z M408.6,92.9v58l-59.7-22.2V92.9
				C348.9,92.9,408.6,92.9,408.6,92.9z M468.3,417.1H331.8V314.7c0-5.1-3.4-8.5-8.5-8.5h-26.4c3.8-13.9,6.5-28.2,8-42.7h27h8.5
				c5.1,0,8.5-3.4,8.5-8.5c0-5.1-3.4-8.5-8.5-8.5v-42.7c0-5.1-3.4-8.5-8.5-8.5h-25.6v-29.9l162.1,67.4L468.3,417.1L468.3,417.1z
				 M323.3,246.5h-17.1c0-3.4,0-6.8,0-9.4v-24.7h17.1V246.5z M16.1,237.1V126.1C80.1,115.9,127,86,152.6,69
				c25.6,17.1,72.5,46.9,136.5,57.2v26.5v51.2v33.3c0,3.6-0.1,7.2-0.3,10.8c-0.1,1.9-0.3,4-0.6,6.2c0,0.5,0,1.1,0.1,1.6
				c-1.5,19-5.1,37.5-10.8,55.3c-0.2,0.4-0.3,0.8-0.4,1.2c-2.8,8.5-6,16.9-9.7,25c0,0,0,0,0,0c-0.8,1.7-1.6,3.5-2.4,5.2
				c-0.3,0.6-0.6,1.2-0.9,1.9c-0.5,1-1,2-1.5,3c-0.7,1.4-1.5,2.9-2.2,4.3c0,0.1-0.1,0.1-0.1,0.2c-14.4,26.6-33.8,50.2-57.3,68.8
				c-16.2,12.8-33.3,23-50.3,29.9c-17.1-7.7-34.1-17.1-50.3-29.9C48.5,378.7,16.1,309.6,16.1,237.1z M195.5,447.1
				c6.1-3.9,12-8.2,17.7-12.9c2.6-2,5.2-4.2,7.7-6.3v23.4h-31.6C191.3,449.9,193.4,448.5,195.5,447.1z M237.9,451.3V412
				c23.9-24.7,41.8-55.5,53.8-88.7h23v128H237.9z M331.8,451.3v-17.1h136.5v17.1H331.8z M493.9,225.1l-187.7-78.5v-16.2l187.7,70.8
				V225.1z"/>
		</g>
	</g>
</g>
</svg>
